HIERARCHY
ROOT Hips
{
	OFFSET 47.002701 -19.860815 95.624397
	CHANNELS 6 Xposition Yposition Zposition Xrotation Yrotation Zrotation
	JOINT spine
	{
		OFFSET 0.000000 -0.458069 7.965683
		CHANNELS 3 Xrotation Yrotation Zrotation
		JOINT spine1
		{
			OFFSET 0.000000 -0.000002 10.243103
			CHANNELS 3 Xrotation Yrotation Zrotation
			JOINT spine2
			{
				OFFSET 0.000000 -0.000002 9.814751
				CHANNELS 3 Xrotation Yrotation Zrotation
				JOINT Neck
				{
					OFFSET 0.000000 -1.201384 25.198593
					CHANNELS 3 Xrotation Yrotation Zrotation
					JOINT Head
					{
						OFFSET 0.000000 0.000000 7.613144
						CHANNELS 3 Xrotation Yrotation Zrotation
						End Site
						{
							OFFSET 0.000000 6.077326 18.428101
						}
					}
				}
				JOINT RightShoulder
				{
					OFFSET -4.132698 0.575451 10.599197
					CHANNELS 3 Xrotation Yrotation Zrotation
					JOINT RightArm
					{
						OFFSET 0.000000 -0.000004 13.901794
						CHANNELS 3 Xrotation Yrotation Zrotation
						JOINT RightArmRoll
						{
							OFFSET 0.000000 0.000000 7.017883
							CHANNELS 3 Xrotation Yrotation Zrotation
							JOINT RightForeArm
							{
								OFFSET 0.000000 -0.000004 20.440598
								CHANNELS 3 Xrotation Yrotation Zrotation
								JOINT RightForeArmRoll
								{
									OFFSET 0.000000 -0.000002 7.875168
									CHANNELS 3 Xrotation Yrotation Zrotation
									JOINT RightHand
									{
										OFFSET 0.000000 -0.000002 15.803696
										CHANNELS 3 Xrotation Yrotation Zrotation
										End Site
										{
											OFFSET 0.000000 0.000000 0.100006
										}
									}
								}
							}
						}
					}
				}
				JOINT LeftShoulder
				{
					OFFSET 4.132698 0.575451 10.599197
					CHANNELS 3 Xrotation Yrotation Zrotation
					JOINT LeftArm
					{
						OFFSET 0.000000 -0.000004 13.901794
						CHANNELS 3 Xrotation Yrotation Zrotation
						JOINT LeftArmRoll
						{
							OFFSET 0.000000 0.000000 7.017883
							CHANNELS 3 Xrotation Yrotation Zrotation
							JOINT LeftForeArm
							{
								OFFSET 0.000000 -0.000004 20.440598
								CHANNELS 3 Xrotation Yrotation Zrotation
								JOINT LeftForeArmRoll
								{
									OFFSET 0.000000 -0.000002 7.875168
									CHANNELS 3 Xrotation Yrotation Zrotation
									JOINT LeftHand
									{
										OFFSET 0.000000 -0.000002 15.803696
										CHANNELS 3 Xrotation Yrotation Zrotation
										End Site
										{
											OFFSET 0.000000 0.000000 0.100006
										}
									}
								}
							}
						}
					}
				}
			}
		}
	}
	JOINT RightUpLeg
	{
		OFFSET -7.060478 1.086100 -1.294701
		CHANNELS 3 Xrotation Yrotation Zrotation
		JOINT RightUpLegRoll
		{
			OFFSET 0.000000 -0.000004 18.530800
			CHANNELS 3 Xrotation Yrotation Zrotation
			JOINT RightLeg
			{
				OFFSET 0.000000 0.000004 -22.947601
				CHANNELS 3 Xrotation Yrotation Zrotation
				JOINT RightLegRoll
				{
					OFFSET 0.000000 -0.000004 23.022598
					CHANNELS 3 Xrotation Yrotation Zrotation
					JOINT RightFoot
					{
						OFFSET 0.000000 -0.000002 19.162498
						CHANNELS 3 Xrotation Yrotation Zrotation
						JOINT RightToeBase
						{
							OFFSET 0.000000 -0.000004 16.018799
							CHANNELS 3 Xrotation Yrotation Zrotation
							End Site
							{
								OFFSET 0.006790 0.894205 7.757812
							}
						}
					}
				}
			}
		}
	}
	JOINT LeftUpLeg
	{
		OFFSET 7.060478 1.086100 -1.294701
		CHANNELS 3 Xrotation Yrotation Zrotation
		JOINT LeftUpLegRoll
		{
			OFFSET 0.000000 -0.000004 18.530899
			CHANNELS 3 Xrotation Yrotation Zrotation
			JOINT LeftLeg
			{
				OFFSET 0.000000 -0.000004 22.947495
				CHANNELS 3 Xrotation Yrotation Zrotation
				JOINT LeftLegRoll
				{
					OFFSET 0.000000 -0.000004 23.235504
					CHANNELS 3 Xrotation Yrotation Zrotation
					JOINT LeftFoot
					{
						OFFSET 0.000000 -0.000002 18.949600
						CHANNELS 3 Xrotation Yrotation Zrotation
						JOINT LeftToeBase
						{
							OFFSET 0.000000 -0.000004 16.018799
							CHANNELS 3 Xrotation Yrotation Zrotation
							End Site
							{
								OFFSET -0.030430 0.894205 7.757812
							}
						}
					}
				}
			}
		}
	}
}
MOTION
Frames: 12
Frame Time: 0.041667
44.355499 -21.015715 84.003601 3.538525 -3.147431 0.271662 -2.361090 0.819276 -0.026796 -0.719454 1.639251 -0.028311 0.925896 1.638807 -0.047951 22.367008 3.412623 -0.442975 -11.670126 -3.162800 -0.312384 -12.387380 -11.727971 -11.621649 -141.722518 -171.767879 -76.870685 -0.000001 -0.000000 0.000000 62.714442 10.450866 8.153035 -0.000002 0.000006 -3.006419 -5.000154 -7.999770 0.000043 -14.142890 20.699250 14.985322 -140.813530 181.411600 84.487043 0.000002 -0.000007 0.000001 60.377493 -11.988094 -6.054015 -0.000006 -0.000020 3.001748 -5.000189 7.999652 -0.000033 -26.611735 -146.864531 4.894390 -179.999991 0.000005 -0.503994 136.404711 0.026797 -1.900485 0.000003 0.000002 0.686716 78.855415 4.490421 9.494415 25.677075 -7.354084 0.291776 -27.528533 161.850799 0.993042 -0.000002 0.000012 -1.204950 -48.578006 -5.065607 -1.708884 -0.000003 -0.000002 -3.541190 84.610826 -5.778239 -5.211680 26.109296 7.346673 -0.807446 
44.367199 -21.076618 84.180603 3.584599 -3.287569 0.239522 -2.386496 0.838287 -0.021375 -0.770345 1.677088 -0.016425 0.875019 1.676785 -0.036520 22.374778 3.578218 -0.447181 -11.489338 -3.353117 -0.303933 -12.332876 -11.930922 -11.551692 -141.583674 -171.653104 -76.870248 -0.000001 0.000002 0.000000 62.837973 10.415616 8.137598 -0.000003 0.000007 -3.006421 -5.000157 -7.999771 0.000045 -14.160398 21.104321 15.046171 -140.702020 181.273234 84.797345 0.000001 -0.000005 0.000002 60.206280 -11.921410 -5.959720 -0.000009 -0.000018 3.001750 -5.000189 7.999652 -0.000038 -26.388388 -146.895280 4.937698 -179.999991 0.000006 -0.556997 137.013800 0.009509 -1.834132 0.000003 -0.000000 0.756442 78.572024 4.646165 8.937248 25.673544 -7.354119 0.285791 -27.219084 162.071400 0.886344 -0.000004 0.000011 -1.230620 -47.988943 -4.871247 -1.659783 -0.000005 0.000002 -3.537820 84.387377 -5.881804 -4.776169 26.132901 7.346117 -0.835765 
44.413200 -20.988514 84.548111 3.621828 -3.411948 0.209868 -2.410386 0.854102 -0.015966 -0.818208 1.708526 -0.004659 0.827170 1.708362 -0.025131 22.406116 3.740536 -0.452658 -11.327602 -3.539947 -0.296093 -12.270142 -12.138042 -11.469622 -141.449816 -171.507607 -76.910218 -0.000001 -0.000001 0.000001 62.934278 10.379357 8.112519 -0.000002 0.000006 -3.006418 -5.000152 -7.999772 0.000043 -14.139930 21.538257 15.057398 -140.621615 181.100581 85.178497 0.000003 -0.000006 0.000000 60.022924 -11.839234 -5.861190 -0.000007 -0.000020 3.001750 -5.000191 7.999653 -0.000036 -26.130366 -146.946712 4.990190 -179.999991 0.000004 -0.609004 137.653706 -0.010347 -1.773426 0.000004 0.000001 0.817541 78.269644 4.797395 8.399102 25.669297 -7.354172 0.279010 -26.896464 162.274243 0.780317 -0.000003 0.000010 -1.254589 -47.371477 -4.683988 -1.605284 -0.000005 -0.000000 -3.520741 84.117734 -5.979907 -4.366712 26.152373 7.345650 -0.859137 
44.505199 -21.011612 84.754402 3.648156 -3.516747 0.183201 -2.432330 0.865988 -0.010599 -0.862144 1.732104 0.006886 0.783244 1.732078 -0.013870 22.465495 3.897712 -0.459728 -11.190991 -3.720789 -0.289484 -12.197556 -12.347946 -11.372873 -141.323321 -171.325993 -76.998703 0.000000 -0.000001 0.000000 62.997341 10.342060 8.076138 -0.000002 0.000008 -3.006419 -5.000154 -7.999770 0.000045 -14.074587 22.002435 15.009056 -140.580729 180.888913 85.637786 -0.000001 -0.000004 0.000002 59.828414 -11.739561 -5.758463 -0.000009 -0.000021 3.001752 -5.000190 7.999651 -0.000031 -25.833210 -147.022008 5.052800 -179.999991 0.000004 -0.660993 138.325100 -0.034359 -1.719597 0.000002 -0.000000 0.868161 77.946932 4.941459 7.886800 25.664257 -7.354227 0.271334 -26.560142 162.452921 0.675442 -0.000007 0.000010 -1.276299 -46.724959 -4.505862 -1.544013 -0.000006 -0.000001 -3.487519 83.796019 -6.070545 -3.991489 26.166902 7.345295 -0.876575 
44.492599 -21.004517 85.164391 3.661509 -3.598130 0.160022 -2.451844 0.873216 -0.005304 -0.901257 1.746374 0.018102 0.744137 1.746473 -0.002826 22.557262 4.047868 -0.468763 -11.085609 -3.893133 -0.284811 -12.113499 -12.559355 -11.258878 -141.207003 -171.103096 -77.143961 -0.000002 -0.000002 -0.000000 63.021315 10.303620 8.026757 -0.000001 0.000010 -3.006420 -5.000154 -7.999769 0.000040 -13.957101 22.498139 14.890765 -140.588816 180.633970 86.181524 0.000001 -0.000007 0.000001 59.623542 -11.620395 -5.651888 -0.000008 -0.000019 3.001751 -5.000191 7.999646 -0.000033 -25.492342 -147.125417 5.126632 -179.999991 0.000007 -0.710007 139.028664 -0.063426 -1.675090 0.000003 -0.000001 0.906469 77.602383 5.075617 7.406935 25.658406 -7.354297 0.262714 -26.208648 162.604442 0.570057 -0.000004 0.000013 -1.295210 -46.048866 -4.338829 -1.474479 -0.000006 -0.000003 -3.435741 83.416144 -6.151671 -3.658578 26.175669 7.345098 -0.887086 
44.597801 -21.004318 85.398697 3.659804 -3.652287 0.140843 -2.468507 0.875055 -0.000111 -0.934652 1.749858 0.028883 0.710743 1.750096 0.007913 22.685973 4.189132 -0.480153 -11.017218 -4.054503 -0.282835 -12.016336 -12.770982 -11.125066 -141.104236 -170.833673 -77.354078 -0.000001 0.000000 -0.000000 63.000080 10.264266 7.962458 -0.000006 0.000008 -3.006419 -5.000155 -7.999768 0.000041 -13.779843 23.025951 14.691640 -140.656708 180.332184 86.815495 0.000004 -0.000008 -0.000000 59.409498 -11.479598 -5.541499 -0.000003 -0.000018 3.001749 -5.000191 7.999650 -0.000030 -25.103288 -147.260367 5.212254 -179.999991 0.000006 -0.757995 139.765218 -0.097722 -1.638673 0.000002 0.000000 0.930602 77.234399 5.196867 6.966341 25.651535 -7.354364 0.253063 -25.841481 162.721375 0.464830 -0.000005 0.000012 -1.310791 -45.342583 -4.184749 -1.395106 -0.000004 -0.000002 -3.362951 82.971813 -6.221163 -3.376117 26.177894 7.345073 -0.889672 
44.591499 -21.048817 85.814903 3.645512 -3.681137 0.126155 -2.483487 0.871467 0.005152 -0.964663 1.742493 0.039589 0.680728 1.742857 0.018706 22.858316 4.336037 -0.496185 -10.984976 -4.221608 -0.285359 -11.901934 -12.972439 -10.962093 -141.018189 -170.501985 -77.627702 0.000001 -0.000001 0.000001 62.942748 10.226088 7.883448 -0.000003 0.000010 -3.006418 -5.000153 -7.999770 0.000043 -13.528136 23.601782 14.390334 -140.808393 179.975758 87.571133 -0.000001 -0.000003 0.000002 59.176260 -11.313764 -5.419653 -0.000003 -0.000017 3.001750 -5.000189 7.999650 -0.000031 -24.661651 -147.427571 5.310106 -179.999991 0.000005 -0.805001 140.550868 -0.138993 -1.610369 0.000002 0.000002 0.940681 76.822252 5.309800 6.546052 25.643259 -7.354458 0.241726 -25.453810 162.808501 0.357549 -0.000004 0.000013 -1.323840 -44.589063 -4.039839 -1.303138 -0.000005 -0.000002 -3.264451 82.433075 -6.281635 -3.132121 26.173360 7.345238 -0.884288 
44.677101 -21.040112 86.079102 3.622810 -3.690450 0.115667 -2.498145 0.863269 0.010639 -0.994036 1.725911 0.050578 0.651348 1.726399 0.029894 23.074370 4.501337 -0.518608 -10.980808 -4.409583 -0.293151 -11.769005 -13.157496 -10.765993 -140.950270 -170.102487 -77.954581 -0.000001 0.000000 -0.000001 62.862910 10.190812 7.791522 -0.000007 0.000007 -3.006420 -5.000153 -7.999770 0.000043 -13.197917 24.234264 13.980055 -141.060277 179.567313 88.459576 0.000001 -0.000007 0.000001 58.915361 -11.123119 -5.280059 -0.000002 -0.000017 3.001750 -5.000188 7.999653 -0.000034 -24.169598 -147.623515 5.418503 -179.999991 0.000006 -0.855995 141.396459 -0.188339 -1.589376 0.000003 -0.000002 0.938909 76.352547 5.422181 6.125008 25.633362 -7.354551 0.228323 -25.043088 162.873743 0.247511 -0.000004 0.000011 -1.335590 -43.776400 -3.898435 -1.198603 -0.000004 -0.000003 -3.139569 81.784508 -6.338914 -2.909105 26.163173 7.345547 -0.872087 
44.682701 -21.044815 86.526207 3.592212 -3.682271 0.108755 -2.512348 0.851013 0.016296 -1.022491 1.701199 0.061750 0.622879 1.701830 0.041361 23.328173 4.680499 -0.547004 -11.001091 -4.613566 -0.305565 -11.620186 -13.330622 -10.542113 -140.901762 -169.644864 -78.328644 -0.000001 0.000001 -0.000001 62.761324 10.157750 7.688038 -0.000003 0.000008 -3.006419 -5.000158 -7.999771 0.000045 -12.797177 24.912750 13.471375 -141.413002 179.119921 89.455029 0.000003 -0.000006 0.000002 58.629797 -10.911109 -5.124977 -0.000003 -0.000017 3.001750 -5.000190 7.999651 -0.000036 -23.633679 -147.844540 5.534394 -179.999991 0.000007 -0.908002 142.295093 -0.244477 -1.572983 0.000002 0.000001 0.926602 75.833842 5.535707 5.705974 25.621853 -7.354673 0.213141 -24.611467 162.920229 0.134578 -0.000004 0.000010 -1.346122 -42.911818 -3.759529 -1.083913 -0.000004 -0.000004 -2.992002 81.042339 -6.394513 -2.706300 26.147953 7.345991 -0.853795 
44.748299 -21.056313 86.811905 3.554261 -3.658607 0.104806 -2.525958 0.835251 0.022067 -1.049756 1.669480 0.073005 0.595600 1.670240 0.052996 23.613863 4.869019 -0.580848 -11.041781 -4.828716 -0.321913 -11.458032 -13.496488 -10.295823 -140.873799 -169.138966 -78.744363 0.000002 0.000000 -0.000000 62.638394 10.126376 7.574009 -0.000005 0.000011 -3.006420 -5.000154 -7.999771 0.000045 -12.334336 25.626819 12.875390 -141.864955 178.646917 90.531521 0.000004 -0.000007 0.000003 58.322473 -10.681310 -4.956312 -0.000003 -0.000017 3.001746 -5.000189 7.999648 -0.000034 -23.059248 -148.089593 5.656042 -179.999991 0.000007 -0.961002 143.239695 -0.306844 -1.561219 0.000003 0.000002 0.905072 75.275153 5.651449 5.292108 25.609234 -7.354781 0.196524 -24.161142 162.950091 0.019057 -0.000004 0.000010 -1.355501 -42.002593 -3.622224 -0.961410 -0.000007 -0.000002 -2.825389 80.222498 -6.449758 -2.522745 26.128182 7.346536 -0.830157 
44.573700 -21.090216 87.320107 3.509487 -3.621484 0.103214 -2.538828 0.816534 0.027899 -1.075556 1.631843 0.084248 0.569789 1.632740 0.064690 23.925323 5.062356 -0.619479 -11.098934 -5.050165 -0.341466 -11.285220 -13.659860 -10.032533 -140.867324 -168.594614 -79.196084 0.000003 0.000000 0.000000 62.494981 10.095984 7.450772 -0.000002 0.000009 -3.006421 -5.000153 -7.999773 0.000043 -11.817876 26.366200 12.203625 -142.411999 178.161318 91.664164 0.000002 -0.000009 0.000001 57.996318 -10.437105 -4.776477 -0.000003 -0.000017 3.001752 -5.000191 7.999650 -0.000036 -22.452794 -148.353881 5.780091 -179.999991 0.000007 -1.015002 144.223419 -0.374021 -1.551508 0.000003 -0.000002 0.875626 74.685305 5.770244 4.886038 25.595710 -7.354897 0.178787 -23.694339 162.965486 -0.098739 -0.000004 0.000008 -1.363810 -41.055960 -3.485740 -0.833354 -0.000004 -0.000003 -2.643420 79.341274 -6.505365 -2.357596 26.104682 7.347159 -0.801924 
44.667801 -21.098217 87.625702 3.458410 -3.572928 0.103375 -2.550826 0.795415 0.033738 -1.099603 1.589398 0.095389 0.545725 1.590438 0.076338 24.256816 5.256032 -0.662099 -11.168672 -5.273058 -0.363442 -11.104532 -13.825510 -9.757601 -140.882706 -168.021902 -79.678214 0.000001 0.000001 0.000001 62.331535 10.066097 7.319358 -0.000005 0.000009 -3.006420 -5.000152 -7.999771 0.000044 -11.256560 27.120974 11.468206 -143.046537 177.675309 92.828800 0.000003 -0.000010 0.000001 57.654522 -10.181828 -4.587584 -0.000001 -0.000018 3.001752 -5.000190 7.999651 -0.000035 -21.820028 -148.635162 5.904462 -179.999991 0.000004 -1.069002 145.239000 -0.445278 -1.544023 0.000004 0.000002 0.839585 74.073354 5.892376 4.490487 25.581369 -7.355011 0.160234 -23.213368 162.969502 -0.218792 -0.000001 0.000012 -1.371101 -40.079010 -3.349447 -0.701970 -0.000006 -0.000001 -2.449758 78.414786 -6.561781 -2.209985 26.077855 7.347833 -0.769812 
